<svg width="607" height="694" viewBox="0 0 607 694" fill="none" xmlns="http://www.w3.org/2000/svg">
<path d="M438.948 255.794L564.419 294.374C566.178 294.77 567.997 294.815 569.774 294.506C571.55 294.198 573.248 293.542 574.771 292.577C576.293 291.611 577.611 290.355 578.647 288.88C579.684 287.404 580.419 285.739 580.811 283.98L605.072 175.161C605.866 171.608 605.215 167.885 603.264 164.811C601.313 161.737 598.221 159.563 594.668 158.769L465.754 137.555C461.168 136.8 456.467 137.83 452.615 140.431C448.764 143.033 446.054 147.01 445.042 151.546L426.537 234.474C425.548 238.937 426.275 243.609 428.575 247.56C430.875 251.511 434.578 254.45 438.948 255.794V255.794Z" stroke="#DADEEB" stroke-width="1.37431" stroke-miterlimit="10" stroke-linecap="round"/>
<path d="M396.905 503.892C413.906 473.778 444.155 411.061 452.206 334.093" stroke="#DADEEB" stroke-width="1.37431" stroke-miterlimit="10" stroke-linecap="round"/>
<path d="M170.157 477.424C162.761 455.525 156.32 430.174 155.346 406.328" stroke="#DADEEB" stroke-width="1.37431" stroke-miterlimit="10" stroke-linecap="round"/>
<path d="M145.752 489.071C145.752 489.071 141.982 453.624 120.074 429.556L94.7714 449.092C94.7714 449.092 128.887 457.462 145.752 489.071Z" fill="#FFD550"/>
<path d="M89.8547 509.834C47.2783 512.886 15.1014 546.879 17.8822 585.673C20.663 624.468 57.3593 653.524 99.9358 650.472C142.512 647.42 174.689 613.427 171.908 574.633C169.127 535.838 132.431 506.782 89.8547 509.834Z" stroke="#DADEEB"/>
<path d="M124.421 332.039C124.421 332.039 108.8 333.003 101.529 324.681C97.8073 320.429 88.6467 311.452 77.0561 306.302C65.4656 301.153 78.1458 321.972 77.7022 323.659C77.1236 325.916 55.7071 311.288 52.4865 315.897C49.2658 320.506 45.8233 333.013 60.3163 345.568C74.8093 358.122 120.294 376.212 132.965 374.737C145.635 373.261 140.553 343.928 124.421 332.039Z" fill="#F3ABAA"/>
<path d="M79.7565 324.981L88.3867 333.129" stroke="#0D0F44" stroke-width="0.916209" stroke-miterlimit="10" stroke-linecap="round"/>
<path d="M448.783 233.664C448.783 233.664 452.1 226.722 452.64 213.955C453.142 201.795 456.131 178.942 463.488 178.942C466.969 178.942 474.356 182.018 473.748 203.772C473.748 203.772 475.387 212.595 490.565 196.173C505.743 179.752 511.711 180.803 516.205 184.265C524.17 190.417 537.139 206.231 526.262 229.209C515.385 252.188 478.868 270.673 478.868 270.673L448.783 233.664Z" fill="#F3ABAA"/>
<path d="M515.752 188.286C515.752 188.286 504.412 202.027 497.971 205.643" stroke="#0D0F44" stroke-width="0.916209" stroke-miterlimit="10" stroke-linecap="round"/>
<path d="M520.487 196.974C520.487 196.974 509.157 210.715 502.706 214.331" stroke="#0D0F44" stroke-width="0.916209" stroke-miterlimit="10" stroke-linecap="round"/>
<path d="M524.641 207.33C524.641 207.33 513.311 221.052 506.86 224.687" stroke="#0D0F44" stroke-width="0.916209" stroke-miterlimit="10" stroke-linecap="round"/>
<path d="M524.641 220.609C521.078 224.887 517.297 228.978 513.311 232.864" stroke="#0D0F44" stroke-width="0.916209" stroke-miterlimit="10" stroke-linecap="round"/>
<path d="M425.914 557.36L320.461 482.408C317.211 480.097 313.487 478.536 309.56 477.839C305.633 477.142 301.6 477.326 297.753 478.377L133.827 522.994C130.998 523.76 128.419 525.255 126.349 527.331C124.28 529.406 122.791 531.988 122.032 534.819C121.274 537.651 121.272 540.631 122.027 543.463C122.782 546.295 124.267 548.88 126.334 550.958L260.445 686.39C264.904 690.905 270.882 693.603 277.218 693.96C283.555 694.316 289.797 692.305 294.735 688.318L426.695 581.351C428.498 579.885 429.937 578.022 430.9 575.908C431.864 573.793 432.326 571.485 432.251 569.162C432.175 566.84 431.564 564.566 430.465 562.519C429.365 560.472 427.808 558.706 425.914 557.36Z" fill="#0D0F44"/>
<path d="M122.168 520.459L121.454 541.865L131.926 550.785L122.168 520.459Z" fill="#0D0F44"/>
<path d="M432.247 555.692V571.767L416.125 580.185L432.247 555.692Z" fill="#0D0F44"/>
<path d="M425.91 543.437L320.457 468.474C317.207 466.163 313.483 464.603 309.556 463.906C305.629 463.209 301.596 463.393 297.749 464.444L133.823 509.06C130.993 509.826 128.415 511.322 126.345 513.397C124.275 515.472 122.787 518.055 122.028 520.886C121.27 523.717 121.268 526.698 122.023 529.53C122.778 532.362 124.263 534.946 126.33 537.024L260.441 672.456C264.906 676.965 270.887 679.654 277.224 680.002C283.56 680.349 289.799 678.33 294.731 674.337L426.691 567.418C428.492 565.952 429.929 564.089 430.892 561.976C431.854 559.862 432.316 557.555 432.24 555.234C432.165 552.913 431.554 550.641 430.456 548.594C429.358 546.548 427.802 544.783 425.91 543.437Z" fill="#22319E"/>
<path d="M152.465 539.926L200.679 588.593L202.28 581.843C204.739 570.937 212.414 536.301 219.106 500.063L158.781 516.456C156.405 517.095 154.238 518.348 152.497 520.088C150.757 521.828 149.504 523.995 148.864 526.372C148.225 528.749 148.221 531.252 148.853 533.631C149.485 536.01 150.731 538.18 152.465 539.926Z" fill="#DADEEB"/>
<path d="M341.04 613.973L337.984 619.315L404.47 565.441C405.981 564.211 407.188 562.649 407.995 560.876C408.803 559.102 409.189 557.166 409.125 555.219C409.06 553.272 408.547 551.366 407.624 549.65C406.701 547.934 405.394 546.454 403.805 545.327L372.717 523.235C365.576 554.568 354.951 585.004 341.04 613.973Z" fill="#DADEEB"/>
<path d="M269.555 97.2876C269.555 97.2876 239.354 92.2059 233.635 147.999C229.248 190.812 225.179 197.475 223.925 201.467C222.672 205.46 195.701 235.853 203.434 267.559C203.434 267.559 215.469 308.058 252.892 314.856C290.315 321.654 294.732 230.367 294.732 230.367C294.732 230.367 299.823 112.215 269.555 97.2876Z" fill="#22319E"/>
<path d="M478.522 477.412C460.287 477.412 445.505 462.63 445.505 444.396C445.505 426.161 460.287 411.379 478.522 411.379C496.756 411.379 511.538 426.161 511.538 444.396C511.538 462.63 496.756 477.412 478.522 477.412Z" fill="#22319E"/>
<path d="M466.814 443.769L479.532 460.162C479.746 460.444 480.032 460.661 480.361 460.791C480.69 460.921 481.047 460.958 481.396 460.899C481.744 460.839 482.069 460.685 482.336 460.453C482.602 460.221 482.8 459.92 482.907 459.583L490.168 437.579C490.282 437.244 490.301 436.885 490.224 436.54C490.147 436.195 489.977 435.878 489.732 435.624C489.488 435.369 489.178 435.187 488.836 435.096C488.495 435.005 488.135 435.01 487.796 435.11L467.826 440.684C467.513 440.765 467.225 440.923 466.989 441.144C466.753 441.365 466.577 441.642 466.476 441.95C466.375 442.257 466.353 442.585 466.412 442.903C466.471 443.221 466.609 443.519 466.814 443.769Z" fill="white"/>
<path d="M9.56051 232.006L98.4084 259.912C99.8849 260.376 101.438 260.544 102.98 260.407C104.521 260.27 106.021 259.831 107.393 259.115C108.764 258.399 109.982 257.419 110.975 256.232C111.968 255.045 112.718 253.675 113.181 252.198L130.943 195.644C131.843 192.779 131.616 189.679 130.308 186.977C128.999 184.274 126.709 182.173 123.904 181.102L36.0876 147.546C34.375 147.007 32.573 146.812 30.7848 146.97C28.9965 147.129 27.2571 147.638 25.6657 148.469C24.0744 149.3 22.6625 150.437 21.5106 151.814C20.3587 153.191 19.4894 154.781 18.9525 156.494L0.631332 214.861C-0.456848 218.319 -0.127548 222.067 1.54681 225.282C3.22119 228.497 6.10361 230.916 9.56051 232.006Z" fill="#22319E"/>
<path d="M50.5231 211.187L62.7982 216.172L78.4291 204.022L76.6162 190.908C76.5215 190.245 76.2555 189.618 75.8447 189.089C75.4338 188.559 74.8921 188.146 74.2731 187.89L46.0006 176.396C45.7637 176.3 45.5058 176.269 45.2529 176.305C44.9999 176.34 44.7608 176.442 44.5596 176.599C44.3583 176.756 44.2019 176.964 44.1062 177.201C44.0105 177.438 43.9788 177.695 44.0142 177.948L48.1895 208.178C48.285 208.839 48.5502 209.463 48.9592 209.991C49.3682 210.518 49.9071 210.93 50.5231 211.187V211.187Z" stroke="white" stroke-width="1.83242" stroke-miterlimit="10" stroke-linecap="round"/>
<path d="M62.7188 216.231L72.8532 229.258C73.885 230.579 76.0836 230.589 77.7711 229.258L87.3559 221.795C89.0434 220.483 89.5737 218.343 88.5516 217.022L78.4268 204.023L62.7188 216.231Z" stroke="white" stroke-width="1.83242" stroke-miterlimit="10" stroke-linecap="round"/>
<path d="M44.5506 176.599L59.2075 195.45" stroke="white" stroke-width="1.83242" stroke-miterlimit="10" stroke-linecap="round"/>
<path d="M62.488 205.141C59.5057 205.141 57.0881 202.724 57.0881 199.742C57.0881 196.759 59.5057 194.342 62.488 194.342C65.4703 194.342 67.8879 196.759 67.8879 199.742C67.8879 202.724 65.4703 205.141 62.488 205.141Z" stroke="white" stroke-width="1.83242" stroke-miterlimit="10" stroke-linecap="round"/>
<path d="M200.66 588.594L264.996 653.566C268.742 657.348 273.76 659.604 279.075 659.894C284.391 660.185 289.624 658.49 293.76 655.138L337.982 619.315L341.038 613.973C354.949 585.004 365.574 554.568 372.715 523.235C387.352 460.143 384.961 411.833 384.961 411.833L230.224 412.045C230.812 430.54 225.403 466.044 219.087 500.064C212.395 536.301 204.719 570.938 202.26 581.844L200.66 588.594Z" fill="#0D0F44"/>
<path d="M324.99 481.771L311.123 487.074C311.123 487.074 310.709 531.055 259.593 643.836" stroke="#DADEEB" stroke-width="0.916209" stroke-miterlimit="10" stroke-linecap="round"/>
<path d="M310.932 209.529C310.932 209.529 352.395 211.882 367.824 241.938C386.752 278.581 409.48 274.126 441.214 236.288C442.386 234.886 444.014 233.941 445.813 233.62C447.612 233.299 449.466 233.622 451.05 234.533C462.814 241.283 487.258 258.283 475.88 277.346C461.127 302.051 416.5 353.688 378.489 350.737C378.489 350.737 385.306 393.763 384.882 411.833C384.882 411.833 361.498 441.379 303.266 440.106C245.033 438.833 230.145 412.045 230.145 412.045C230.145 412.045 229.509 367.834 227.59 356.359C227.59 356.359 189.27 385.007 132.889 374.757C132.889 374.757 140.41 348.789 124.345 332.04C124.345 332.04 180.051 316.66 186.193 308.116C192.336 299.573 209.269 251.986 212.624 244.87C217.012 235.545 229.981 219.914 254.917 212.393C279.853 204.872 310.932 209.529 310.932 209.529Z" fill="#FF2633"/>
<path d="M358.759 247.878C358.759 247.878 371.564 284.674 377.909 344.257" stroke="#DADEEB" stroke-width="0.916209" stroke-miterlimit="10" stroke-linecap="round"/>
<path d="M267.954 270.664C267.954 270.664 256.849 307.826 249.007 329.419C246.455 336.446 244.248 341.823 242.883 343.736C237.319 351.527 227.676 356.358 227.676 356.358" stroke="white" stroke-width="0.916209" stroke-miterlimit="10" stroke-linecap="round"/>
<path d="M134.727 329.06C134.727 329.06 151.264 337.642 144.138 372.028" stroke="white" stroke-width="0.916209" stroke-miterlimit="10" stroke-linecap="round"/>
<path d="M436.846 241.388C436.846 241.388 457.549 251.687 467.568 270.664" stroke="white" stroke-width="0.916209" stroke-miterlimit="10" stroke-linecap="round"/>
<path d="M321.644 107.5C321.644 107.5 339.695 115.696 326.928 144.846L310.97 116.689L321.644 107.5Z" fill="#22319E"/>
<path d="M263.48 164.786C263.48 164.786 272.718 211.708 272.718 215.516C272.718 219.325 298.078 225.342 312.33 213.588C312.33 213.588 301.723 182.914 299.852 175.239C297.982 167.563 276.739 159.058 263.48 164.786Z" fill="#F3ABAA"/>
<path d="M263.48 164.786L302.282 183.483C303.642 187.765 305.319 192.866 306.959 197.687C306.959 197.687 272.737 203.097 263.48 164.786Z" fill="#0D0F44"/>
<path d="M258.358 146.494C258.358 166.561 273.729 188.276 292.696 188.276C315.78 188.276 328.47 174.593 327.043 146.494C326.021 126.563 311.663 110.18 292.696 110.18C273.729 110.18 258.358 126.437 258.358 146.494Z" fill="#F3ABAA"/>
<path d="M274.296 147.256C294.729 149.232 321.748 133.428 321.642 107.499C321.536 81.5694 297.766 80.6051 294.17 80.6051C290.573 80.6051 259.147 85.3493 249.514 116.765C239.881 148.181 265.733 146.426 274.296 147.256Z" fill="#22319E"/>
<path d="M255.981 162.103C248.731 157.917 244.928 150.931 247.487 146.499C250.046 142.067 257.998 141.867 265.248 146.053C272.498 150.239 276.301 157.225 273.742 161.657C271.183 166.089 263.232 166.289 255.981 162.103Z" fill="#F3ABAA"/>
<path d="M293.234 174.4C293.234 174.4 285.317 175.412 282.087 168.479" stroke="#0D0F44" stroke-width="0.916209" stroke-miterlimit="10" stroke-linecap="round"/>
<path d="M263.519 155.674L252.738 151.016" stroke="#0D0F44" stroke-width="0.916209" stroke-miterlimit="10" stroke-linecap="round"/>
<path d="M308.327 150.698L310.555 160.196C310.619 160.471 310.626 160.757 310.575 161.036C310.523 161.314 310.415 161.579 310.257 161.813C310.098 162.048 309.893 162.247 309.654 162.398C309.415 162.55 309.147 162.65 308.867 162.693L306.582 163.06" stroke="#0D0F44" stroke-width="0.916209" stroke-miterlimit="10" stroke-linecap="round"/>
<path d="M314.578 146.277C314.249 143.528 315.13 141.161 316.547 140.991C317.964 140.821 319.38 142.912 319.71 145.662C320.04 148.411 319.159 150.778 317.742 150.948C316.324 151.118 314.908 149.027 314.578 146.277Z" fill="#0D0F44"/>
<path d="M294.725 149.69C294.396 146.941 295.277 144.574 296.694 144.404C298.111 144.234 299.527 146.325 299.857 149.075C300.187 151.824 299.306 154.191 297.888 154.361C296.471 154.531 295.055 152.44 294.725 149.69Z" fill="#0D0F44"/>
<path d="M420.893 31.4663C422.282 24.7244 425.412 18.4636 429.972 13.307C434.532 8.15034 440.362 4.27763 446.884 2.07418C453.405 -0.129272 460.39 -0.586645 467.143 0.747568C473.895 2.08178 480.181 5.16107 485.375 9.67903C490.568 14.197 494.488 19.9961 496.744 26.4994C499 33.0027 499.514 39.9834 498.234 46.747C496.955 53.5105 493.926 59.8211 489.451 65.0508C484.975 70.2805 479.208 74.247 472.723 76.5557C471.259 77.0882 469.958 77.9893 468.944 79.1717C467.931 80.3541 467.24 81.7779 466.937 83.3056L465.973 87.828C465.543 89.9043 464.709 91.8756 463.517 93.6293C462.326 95.383 460.8 96.8848 459.028 98.0489C457.256 99.213 455.272 100.017 453.189 100.414C451.107 100.811 448.966 100.794 446.89 100.364C444.814 99.934 442.842 99.0996 441.089 97.908C439.335 96.7164 437.833 95.191 436.669 93.4189C435.505 91.6468 434.701 89.6627 434.304 87.58C433.907 85.4973 433.924 83.3567 434.354 81.2806L435.319 76.7968C435.642 75.2836 435.572 73.713 435.116 72.2344C434.661 70.7558 433.834 69.4184 432.715 68.3497C427.731 63.7431 424.024 57.9259 421.952 51.4632C419.881 45.0004 419.516 38.1118 420.893 31.4663Z" fill="#FFD550"/>
<path d="M458.561 78.9089L435.514 74.1454" stroke="#FF2633" stroke-width="2.29052" stroke-miterlimit="10" stroke-linecap="round"/>
<path d="M455.368 8.17023C455.368 8.17023 439.063 10.6195 434.347 24.9486" stroke="white" stroke-width="1.83242" stroke-miterlimit="10" stroke-linecap="round"/>
<path d="M503.396 14.1577C503.396 14.1577 516.51 28.9399 509.288 51.2243" stroke="#FF2633" stroke-width="2.29052" stroke-miterlimit="10" stroke-linecap="round"/>
<path d="M515.943 4.0719C515.943 4.0719 535.228 25.8355 524.621 58.6497" stroke="#FF2633" stroke-width="2.29052" stroke-miterlimit="10" stroke-linecap="round"/>
</svg>
