<svg width="31" height="31" viewBox="0 0 31 31" fill="none" xmlns="http://www.w3.org/2000/svg">
<g id="Chart_pin">
<path id="Vector 8" d="M20.0209 13.5625L16.1459 17.4375L13.5625 14.8542L9.68754 18.7292" stroke="white" stroke-width="2" stroke-linecap="round" stroke-linejoin="round"/>
<path id="Rectangle 25" d="M18.0833 6.45834H8.36663C7.24652 6.45834 6.68647 6.45834 6.25864 6.67633C5.88232 6.86808 5.57636 7.17404 5.38461 7.55036C5.16663 7.97819 5.16663 8.53824 5.16663 9.65834V22.6333C5.16663 23.7534 5.16663 24.3135 5.38461 24.7413C5.57636 25.1176 5.88232 25.4236 6.25864 25.6154C6.68647 25.8333 7.24652 25.8333 8.36663 25.8333H21.3416C22.4617 25.8333 23.0218 25.8333 23.4496 25.6154C23.8259 25.4236 24.1319 25.1176 24.3236 24.7413C24.5416 24.3135 24.5416 23.7534 24.5416 22.6333V12.9167" stroke="white" stroke-width="2" stroke-linecap="round"/>
<circle id="Ellipse 194" cx="24.5417" cy="6.45833" r="2.58333" fill="white"/>
</g>
</svg>
