<svg width="37" height="37" viewBox="0 0 37 37" fill="none" xmlns="http://www.w3.org/2000/svg">
<g id="Layers">
<path id="Vector 99" d="M18.5 6.16667L7.70837 10.7917L18.5 15.4167L29.2917 10.7917L18.5 6.16667Z" stroke="white" stroke-width="2" stroke-linejoin="round"/>
<path id="Subtract" fill-rule="evenodd" clip-rule="evenodd" d="M12.8935 15.1898L7.31445 17.5809C6.94677 17.7384 6.70837 18.1 6.70837 18.5C6.70837 18.9 6.94677 19.2616 7.31445 19.4191L18.1061 24.0441C18.3577 24.152 18.6424 24.152 18.894 24.0441L29.6856 19.4191C30.0533 19.2616 30.2917 18.9 30.2917 18.5C30.2917 18.1 30.0533 17.7384 29.6856 17.5809L24.1065 15.1898L21.5679 16.2778L26.7531 18.5L18.5 22.037L10.247 18.5L15.4321 16.2778L12.8935 15.1898ZM17.9707 13.0139L18.1061 12.9559C18.3577 12.848 18.6424 12.848 18.894 12.9559L19.0294 13.0139L18.5 13.2407L17.9707 13.0139Z" fill="white"/>
<path id="Subtract_2" fill-rule="evenodd" clip-rule="evenodd" d="M12.8935 22.8981L7.31445 25.2892C6.94677 25.4468 6.70837 25.8083 6.70837 26.2083C6.70837 26.6084 6.94677 26.9699 7.31445 27.1275L18.1061 31.7525C18.3577 31.8603 18.6424 31.8603 18.894 31.7525L29.6856 27.1275C30.0533 26.9699 30.2917 26.6084 30.2917 26.2083C30.2917 25.8083 30.0533 25.4468 29.6856 25.2892L24.1065 22.8981L21.5679 23.9861L26.7531 26.2083L18.5 29.7454L10.247 26.2083L15.4321 23.9861L12.8935 22.8981ZM17.9707 20.7222L18.1061 20.6642C18.3577 20.5564 18.6424 20.5564 18.894 20.6642L19.0294 20.7222L18.5 20.9491L17.9707 20.7222Z" fill="white"/>
</g>
</svg>
