<svg width="31" height="31" viewBox="0 0 31 31" fill="none" xmlns="http://www.w3.org/2000/svg">
<g id="Music">
<path id="Vector 72" d="M11.6251 20.6667H8.07616C7.22924 20.6667 6.80578 20.6667 6.46758 20.7928C5.92425 20.9956 5.49567 21.4242 5.29294 21.9675C5.16675 22.3057 5.16675 22.7291 5.16675 23.5761V23.5761C5.16675 24.5873 5.16675 25.0929 5.32619 25.4679C5.58268 26.0712 6.11852 26.5105 6.76038 26.6437C7.15939 26.7265 7.65517 26.6273 8.64675 26.429L9.02921 26.3525C9.96801 26.1647 10.4374 26.0709 10.7862 25.8221C11.0752 25.6161 11.3042 25.3368 11.4496 25.0129C11.6251 24.6221 11.6251 24.1434 11.6251 23.186V11.0292C11.6251 9.45945 11.6251 8.67458 12.0784 8.12162C12.5317 7.56866 13.3013 7.41474 14.8406 7.10688L19.7573 6.12355C21.9709 5.68083 23.0777 5.45947 23.8097 6.05958C24.5417 6.65969 24.5417 7.78842 24.5417 10.0459V11.625M24.5417 18.0833V20.6027C24.5417 21.5601 24.5417 22.0388 24.3663 22.4296C24.2209 22.7534 23.9919 23.0327 23.7029 23.2388C23.3541 23.4875 22.8847 23.5814 21.9459 23.7692L21.5634 23.8457C20.5718 24.044 20.0761 24.1431 19.677 24.0603C19.0352 23.9271 18.4993 23.4879 18.2429 22.8846C18.0834 22.5096 18.0834 22.004 18.0834 20.9927V20.9927C18.0834 20.1458 18.0834 19.7224 18.2096 19.3842C18.4123 18.8408 18.8409 18.4122 19.3842 18.2095C19.7224 18.0833 20.1459 18.0833 20.9928 18.0833H24.5417ZM24.5417 18.0833V11.625M24.5417 11.625L11.6251 14.2083" stroke="white" stroke-width="2"/>
</g>
</svg>
